:SAMPLES-PER-SECOND 30
:FULLY-SPECIFIED
:DEGREES
187
root  9.11117764 37.7275542 -1.064728846 -4.496994019 -19.85400391 2.229003906
lowerback  12.05189991 1.502709985 -5.987380028
upperback  5.436359882 1.248540044 -1.550549984
thorax  -1.141229987 0.5287969708 1.593189955
lowerneck  3.933399916 3.633939981 -7.129519939
upperneck  16.53380013 3.487499952 10.44919968
head  3.906369925 1.742339969 4.491330147
lclavicle  0 -9.442270133e-015 7.951389973e-016
lhumerus  13.39009953 -18.96969986 85.01609802
lradius  1.832643466e-031 -3.01832105e-031 121.2649994
lwrist  -7.062250077e-031 2.206953149e-031 23.89949989
lhand  -1.496451383e-031 -27.76390076 20.11240005
lfingers  90 7.125020027 -90
lthumb  89.89689403 5.08795885 91.16245106
rclavicle  0 -9.442270133e-015 7.951389973e-016
rhumerus  31.40229988 6.512129784 -82.06610107
rradius  -1.706152707e-031 3.091583248e-031 118.8929977
rwrist  1.412450015e-030 5.296687558e-031 -42.91360092
rhand  -7.920061211e-032 -33.2840004 9.303460121
rfingers  -90 -7.125020027 -90
rthumb  -92.93752616 -24.25625642 -97.11982154
rfemur  -21.51440048 13.39750004 0.01072369982
rtibia  -0 0 54.70619965
rfoot  -4.727730974e-032 -20.99360085 -5.996119976
rtoes  5.373923086 19.29304026 -105.8922705
lfemur  -18.90880013 -1.115450025 -4.86507988
ltibia  -0 0 55.33300018
lfoot  -0 -17.35829926 10.97229958
ltoes  -4.250644065 -19.5611806 -102.515957
188
root  9.065933678 38.02666551 -1.085026621 -4.449996948 -21.26600647 2.261001587
lowerback  11.71959972 1.675230026 -5.994689941
upperback  5.45238018 1.500859976 -1.503819942
thorax  -0.9638490081 0.6481249928 1.61995995
lowerneck  3.794529915 3.825119972 -7.143360138
upperneck  17.0807991 3.754669905 10.12689972
head  4.081639767 1.859920025 4.412350178
lclavicle  0 -9.442270133e-015 7.951389973e-016
lhumerus  12.75039959 -18.24780083 84.96150208
lradius  1.829112608e-031 -3.020462068e-031 121.197998
lwrist  -7.062250077e-031 2.206953149e-031 23.60029984
lhand  -1.496451383e-031 -27.76390076 20.11240005
lfingers  90 7.125020027 -90
lthumb  89.89689403 5.08795885 91.16245106
rclavicle  0 -9.442270133e-015 7.951389973e-016
rhumerus  30.73130035 7.654109955 -82.16760254
rradius  -1.682415413e-031 3.104564771e-031 118.4540024
rwrist  0 2.648343779e-031 -42.32040024
rhand  -7.920061211e-032 -33.2840004 9.303460121
rfingers  -90 -7.125020027 -90
rthumb  -92.93752616 -24.25625642 -97.11982154
rfemur  -21.19079971 13.84220028 0.1044149995
rtibia  -0 0 52.65190125
rfoot  -4.69797532e-032 -20.02659988 -5.3364501
rtoes  5.373923086 19.29304026 -105.8922705
lfemur  -18.17609978 -1.983590007 -5.07818985
ltibia  -0 0 54.62139893
lfoot  -0 -16.06349945 12.30370045
ltoes  -4.250644065 -19.5611806 -102.515957
189
root  9.026133169 38.33266731 -1.118628904 -4.345001221 -22.69400024 2.298995972
lowerback  11.34430027 1.813230038 -5.96931982
upperback  5.541590214 1.715309978 -1.535670042
thorax  -0.6809340119 0.745791018 1.55569005
lowerneck  3.536139965 4.006659985 -6.887159824
upperneck  17.42490005 4.046110153 9.677080154
head  4.225090027 2.00026989 4.246029854
lclavicle  0 -9.442270133e-015 7.951389973e-016
lhumerus  12.32250023 -17.58550072 84.55370331
lradius  1.838697817e-031 -3.01463669e-031 121.3799973
lwrist  -1.412450015e-030 1.765562519e-031 23.3519001
lhand  -1.496451383e-031 -27.76390076 20.11240005
lfingers  90 7.125020027 -90
lthumb  89.89689403 5.08795885 91.16245106
rclavicle  0 -9.442270133e-015 7.951389973e-016
rhumerus  30.17770004 8.738459587 -82.36450195
rradius  -1.667603757e-031 3.112545863e-031 118.1809998
rwrist  7.062250077e-031 4.413906298e-031 -41.89379883
rhand  -7.920061211e-032 -33.2840004 9.303460121
rfingers  -90 -7.125020027 -90
rthumb  -92.93752616 -24.25625642 -97.11982154
rfemur  -21.01499939 14.24720001 0.1252759993
rtibia  -0 0 50.60829926
rfoot  -4.663686283e-032 -18.83690071 -4.409110069
rtoes  5.373923086 19.29304026 -105.8922705
lfemur  -17.57449913 -2.916870117 -5.32133007
ltibia  -0 0 53.97129822
lfoot  -0 -14.51420021 13.78310013
ltoes  -4.250644065 -19.5611806 -102.515957
190
root  8.999000009 38.63333454 -1.160788912 -4.17300415 -24.19999695 2.054000854
lowerback  11.13150024 1.918349981 -5.607689857
upperback  5.666279793 1.907369971 -1.543359995
thorax  -0.4398230016 0.8386909962 1.330129981
lowerneck  3.093650103 4.174590111 -6.460810184
upperneck  17.7208004 4.351329803 9.08300972
head  4.394939899 2.153140068 4.010660172
lclavicle  0 -9.442270133e-015 7.951389973e-016
lhumerus  12.05039978 -16.96039963 83.88359833
lradius  1.861898924e-031 -3.000362717e-031 121.8219986
lwrist  -1.412450015e-030 1.765562519e-031 23.24220085
lhand  -1.496451383e-031 -27.76390076 20.11240005
lfingers  90 7.125020027 -90
lthumb  89.89689403 5.08795885 91.16245106
rclavicle  0 -9.442270133e-015 7.951389973e-016
rhumerus  29.72830009 9.756329536 -82.54920197
rradius  -1.655531296e-031 3.118983835e-031 117.9589996
rwrist  0 6.179468817e-031 -41.55749893
rhand  -7.920061211e-032 -33.2840004 9.303460121
rfingers  -90 -7.125020027 -90
rthumb  -92.93752616 -24.25625642 -97.11982154
rfemur  -20.85149956 14.78649998 0.4133589864
rtibia  -0 0 48.59550095
rfoot  -4.626936991e-032 -17.45389938 -3.493370056
rtoes  5.373923086 19.29304026 -105.8922705
lfemur  -16.99189949 -3.809760094 -5.300020218
ltibia  -0 0 53.39590073
lfoot  -0 -12.7802 15.26060009
ltoes  -4.250644065 -19.5611806 -102.515957
191
root  8.982755256 38.93177904 -1.203577819 -4.024002075 -25.83500671 1.718002319
lowerback  11.09389973 2.024889946 -5.205389977
upperback  5.802320004 2.091160059 -1.470839977
thorax  -0.2807370126 0.9296000004 1.16257
lowerneck  2.447789907 4.353600025 -6.188660145
upperneck  18.05459976 4.687570095 8.472399712
head  4.607699871 2.312530041 3.804879904
lclavicle  0 -9.442270133e-015 7.951389973e-016
lhumerus  12.01430035 -16.21170044 83.08080292
lradius  1.891394953e-031 -2.981856665e-031 122.387001
lwrist  -1.412450015e-030 8.827812596e-032 23.31999969
lhand  -1.496451383e-031 -27.76390076 20.11240005
lfingers  90 7.125020027 -90
lthumb  89.89689403 5.08795885 91.16245106
rclavicle  0 -9.442270133e-015 7.951389973e-016
rhumerus  29.41410065 10.8597002 -82.53399658
rradius  -1.638577391e-031 3.127923939e-031 117.6480026
rwrist  7.062250077e-031 4.413906298e-031 -41.1996994
rhand  -7.920061211e-032 -33.2840004 9.303460121
rfingers  -90 -7.125020027 -90
rthumb  -92.93752616 -24.25625642 -97.11982154
rfemur  -20.69619942 15.45940018 0.7603139877
rtibia  -0 0 46.63639832
rfoot  -6.885152812e-032 -15.92660046 -2.517980099
rtoes  5.373923086 19.29304026 -105.8922705
lfemur  -16.35199928 -4.537940025 -5.228990078
ltibia  -0 0 52.89189911
lfoot  -0 -11.22430038 16.4871006
ltoes  -4.250644065 -19.5611806 -102.515957
192
root  8.963488782 39.22955671 -1.244631152 -3.768005371 -27.54499817 1.544006348
lowerback  10.80300045 2.105170012 -5.091020107
upperback  5.950230122 2.230149984 -1.385529995
thorax  0.0237317998 0.9895840287 1.182890058
lowerneck  1.745830059 4.604239941 -6.051400185
upperneck  18.31209946 5.134079933 7.86288023
head  4.798369884 2.514909983 3.626179934
lclavicle  0 -9.442270133e-015 7.951389973e-016
lhumerus  12.30200005 -15.2972002 82.02719879
lradius  1.921741072e-031 -2.962390131e-031 122.9720001
lwrist  -1.412450015e-030 1.324171889e-031 23.54430008
lhand  -1.496451383e-031 -27.76390076 20.11240005
lfingers  90 7.125020027 -90
lthumb  89.89689403 5.08795885 91.16245106
rclavicle  0 -9.442270133e-015 7.951389973e-016
rhumerus  29.31529999 12.0781002 -82.45500183
rradius  -1.621848789e-031 3.136630444e-031 117.3420029
rwrist  7.062250077e-031 1.765562519e-031 -40.81100082
rhand  -7.920061211e-032 -33.2840004 9.303460121
rfingers  -90 -7.125020027 -90
rthumb  -92.93752616 -24.25625642 -97.11982154
rfemur  -20.81480026 16.10070038 0.8584370017
rtibia  -0 0 44.75529861
rfoot  -5.694742248e-032 -14.33710003 -1.377820015
rtoes  5.373923086 19.29304026 -105.8922705
lfemur  -15.94089985 -5.067500114 -5.328810215
ltibia  -0 0 52.46960068
lfoot  -0 -9.79475975 17.31259918
ltoes  -4.250644065 -19.5611806 -102.515957
